# xmcd
#
# Track frame offsets: 
#        150
#        213400
#        229388
#        241095
#        252851
#        274326
#        289256
#        302608
#        318815
#        330298
#        347463
#        351396
#
# Disc length: 4893 seconds
#
# Revision: 0
# Processed by: cddbd v1.5.2PL0 Copyright (c) Steve Scherf et al.
# Submitted via: ExactAudioCopyFreeDBPlugin 1.0
#
DISCID=af131b0c
DTITLE=Garth Brooks - Beyond the season
DYEAR=1992
DGENRE=country
TTITLE0=Go tell on the mountain
TTITLE1=God rest ye merry gentlemen
TTITLE2=The old man's back in town
TTITLE3=The gift
TTITLE4=Unto you this night
TTITLE5=White christmas
TTITLE6=The friendly beasts
TTITLE7=Santa looked a lot like daddy 
TTITLE8=Silent night
TTITLE9=Marys Dream
TTITLE10=What child is this
TTITLE11=this
EXTD=
EXTT0=
EXTT1=
EXTT2=
EXTT3=
EXTT4=
EXTT5=
EXTT6=
EXTT7=
EXTT8=
EXTT9=
EXTT10=
EXTT11=
PLAYORDER=
